<?xml version="1.0" standalone="no"?>
<!DOCTYPE svg PUBLIC "-//W3C//DTD SVG 20010904//EN"
 "http://www.w3.org/TR/2001/REC-SVG-20010904/DTD/svg10.dtd">
<svg version="1.0" xmlns="http://www.w3.org/2000/svg"
 width="826.000000pt" height="841.000000pt" viewBox="0 0 826.000000 841.000000"
 preserveAspectRatio="xMidYMid meet">

<g transform="translate(0.000000,841.000000) scale(0.100000,-0.100000)"
fill="#000000" stroke="none">
<path d="M3840 8400 c-314 -26 -595 -78 -885 -165 -1265 -378 -2293 -1378
-2725 -2650 -238 -703 -291 -1450 -154 -2175 129 -684 419 -1314 861 -1870
136 -172 458 -494 633 -634 239 -191 538 -380 805 -506 926 -441 1960 -519
2940 -222 1078 327 1984 1099 2499 2128 309 620 463 1317 443 2009 -25 825
-271 1601 -721 2265 -481 709 -1145 1244 -1926 1550 -332 130 -661 211 -1040
255 -159 19 -580 27 -730 15z m730 -53 c14 -3 52 -8 85 -12 89 -10 366 -63
480 -91 404 -102 855 -302 1200 -534 489 -328 849 -677 1167 -1130 335 -479
590 -1107 688 -1696 44 -262 54 -396 54 -684 0 -286 -8 -385 -55 -670 -132
-791 -434 -1440 -968 -2075 -210 -250 -574 -570 -861 -756 -279 -181 -619
-346 -915 -442 -748 -243 -1505 -275 -2265 -96 -764 180 -1451 575 -1993 1147
-447 473 -756 991 -957 1607 -198 608 -255 1200 -174 1825 78 604 338 1287
685 1800 187 276 441 564 694 787 278 245 562 440 865 593 486 245 936 377
1465 429 93 10 760 8 805 -2z"/>
<path d="M4144 7958 c-47 -22 -56 -86 -19 -123 48 -49 135 -15 135 52 -1 32
-15 55 -47 71 -26 14 -41 14 -69 0z"/>
<path d="M3325 7883 c-98 -12 -395 -89 -395 -102 0 -3 11 -7 25 -7 14 -1 22 2
19 7 -3 5 2 9 10 9 8 0 17 -4 20 -8 3 -5 41 -9 85 -11 76 -2 81 -1 81 19 0 11
4 20 10 20 5 0 6 7 3 17 -4 10 -2 14 5 9 6 -3 13 -2 17 4 4 6 11 8 16 5 5 -4
9 -1 9 5 0 8 9 10 24 6 14 -3 28 -2 31 4 3 5 19 10 35 10 23 0 28 -4 24 -17
-3 -10 1 -7 9 7 9 14 18 24 22 22 4 -2 9 -1 13 2 5 6 -10 6 -63 -1z m-155 -66
c0 -5 -17 -6 -37 -2 -25 4 -35 3 -28 -3 6 -6 21 -12 35 -15 21 -4 20 -4 -7 -6
-18 0 -33 4 -33 10 0 6 -9 8 -20 4 -27 -9 -25 3 3 15 27 11 87 9 87 -3z"/>
<path d="M3738 7853 c12 -2 32 -2 45 0 12 2 2 4 -23 4 -25 0 -35 -2 -22 -4z"/>
<path d="M3645 7830 c-3 -6 1 -7 9 -4 18 7 21 14 7 14 -6 0 -13 -4 -16 -10z"/>
<path d="M3599 7801 c-13 -11 -21 -22 -18 -25 3 -3 16 5 29 19 28 30 22 33
-11 6z"/>
<path d="M4668 7790 c-249 -45 -410 -197 -464 -438 -52 -232 60 -483 274 -616
l42 -26 0 -170 c0 -96 4 -170 9 -170 5 0 52 48 104 108 142 160 150 167 232
181 133 23 266 91 339 171 l36 40 155 0 154 0 48 -30 c63 -40 131 -42 181 -4
63 49 79 130 39 197 -32 52 -72 77 -127 77 -56 0 -100 -26 -136 -80 l-27 -40
-473 0 c-461 0 -475 1 -494 20 -25 25 -26 71 -1 101 l19 24 385 3 385 3 7 40
c4 23 4 70 0 105 l-7 63 -423 3 c-400 3 -424 4 -444 22 -29 26 -28 76 2 104
23 22 27 22 410 22 213 0 387 4 387 8 0 4 -13 28 -29 53 -85 132 -262 224
-448 234 -49 2 -109 0 -135 -5z"/>
<path d="M2881 7771 c-7 -5 -11 -13 -7 -19 7 -11 -16 -22 -47 -22 -18 0 -19 2
-7 10 27 18 2 10 -110 -31 -60 -23 -107 -45 -104 -50 3 -5 -1 -7 -8 -4 -7 3
-35 -5 -61 -18 l-48 -22 71 -3 c72 -2 72 -2 68 22 -3 14 -2 23 2 21 5 -3 10 1
13 9 7 18 101 50 105 36 2 -5 17 -10 33 -10 16 0 29 -4 29 -10 0 -5 -9 -10
-20 -10 -11 0 -20 -4 -20 -10 0 -6 37 -10 90 -10 l90 0 0 40 c0 38 -2 40 -31
40 -16 0 -28 4 -25 9 4 5 0 11 -6 14 -8 3 -3 9 12 15 14 6 18 11 10 11 -8 0
-21 -3 -29 -8z"/>
<path d="M2840 7749 c0 -5 5 -7 10 -4 6 3 10 8 10 11 0 2 -4 4 -10 4 -5 0 -10
-5 -10 -11z"/>
<path d="M3550 7740 c-6 -11 -8 -20 -6 -20 3 0 10 9 16 20 6 11 8 20 6 20 -3
0 -10 -9 -16 -20z"/>
<path d="M3256 7715 c-9 -26 -7 -32 5 -12 6 10 9 21 6 23 -2 3 -7 -2 -11 -11z"/>
<path d="M3521 7673 c-19 -66 -11 -170 12 -156 6 3 7 1 3 -5 -15 -25 46 -103
73 -94 9 3 11 0 7 -7 -8 -13 67 -51 99 -50 l20 0 -20 9 c-11 5 -33 11 -48 15
-15 3 -31 13 -34 23 -7 18 -44 48 -54 45 -4 -1 -12 12 -19 30 -6 18 -18 45
-26 60 -15 31 -10 131 9 155 6 8 6 12 -1 12 -6 0 -16 -17 -21 -37z"/>
<path d="M2712 7683 c-6 -2 -9 -10 -5 -16 4 -6 0 -8 -9 -5 -8 4 -21 2 -29 -3
-10 -6 -2 -9 24 -9 23 0 37 5 37 13 0 8 4 7 10 -3 8 -12 10 -11 10 8 0 21 -11
26 -38 15z"/>
<path d="M3230 7658 c0 -19 2 -20 10 -8 13 19 13 30 0 30 -5 0 -10 -10 -10
-22z"/>
<path d="M3537 7618 c-2 -18 -1 -39 3 -46 3 -8 7 7 8 32 2 53 -4 61 -11 14z"/>
<path d="M3995 7621 c-3 -5 -1 -12 5 -16 5 -3 10 1 10 9 0 18 -6 21 -15 7z"/>
<path d="M3215 7597 c-5 -7 -11 -32 -12 -57 -2 -53 12 -34 20 28 3 23 4 42 4
42 -1 -1 -6 -6 -12 -13z"/>
<path d="M2442 7593 c-6 -3 -9 -10 -6 -15 4 -7 2 -8 -5 -4 -14 9 -152 -64
-144 -77 3 -5 8 -5 12 -1 14 20 50 34 57 22 5 -7 10 -4 15 10 5 14 17 22 32
22 27 0 61 22 56 37 -2 5 -10 8 -17 6z"/>
<path d="M2250 7485 c-11 -13 -10 -14 4 -9 9 3 16 10 16 15 0 13 -6 11 -20 -6z"/>
<path d="M2330 7490 c18 -12 30 -13 30 -2 0 4 -10 9 -22 9 -18 2 -20 0 -8 -7z"/>
<path d="M3197 7474 c-4 -12 -5 -28 -1 -37 5 -14 -7 -15 -93 -12 l-98 4 100
-9 c54 -5 101 -8 103 -6 2 2 2 21 0 42 -2 32 -5 35 -11 18z"/>
<path d="M2958 7413 c6 -2 18 -2 25 0 6 3 1 5 -13 5 -14 0 -19 -2 -12 -5z"/>
<path d="M2850 7400 c8 -5 20 -10 25 -10 6 0 3 5 -5 10 -8 5 -19 10 -25 10 -5
0 -3 -5 5 -10z"/>
<path d="M2099 7383 c-13 -16 -12 -17 4 -4 9 7 17 15 17 17 0 8 -8 3 -21 -13z"/>
<path d="M3870 7390 c-9 -6 -10 -10 -3 -10 6 0 15 5 18 10 8 12 4 12 -15 0z"/>
<path d="M1915 7244 c-16 -13 -25 -24 -20 -24 12 1 59 39 54 44 -2 2 -17 -7
-34 -20z"/>
<path d="M2865 7181 c-22 -10 -52 -31 -67 -47 -50 -54 -58 -97 -58 -323 0
-113 5 -223 11 -244 13 -47 63 -106 106 -123 18 -8 64 -14 103 -14 l70 0 0
-170 c0 -93 2 -170 5 -170 8 0 54 51 182 203 l117 137 150 0 c169 0 216 13
253 66 38 55 43 90 43 318 0 194 -3 226 -19 262 -23 50 -53 81 -106 105 -37
17 -70 19 -395 19 -324 0 -358 -2 -395 -19z m751 -236 c14 -55 11 -55 -357
-55 l-339 0 -6 25 c-14 55 -11 55 357 55 l339 0 6 -25z m-1 -196 c4 -5 4 -21
1 -35 l-6 -24 -345 0 -345 0 0 35 0 35 344 0 c232 0 347 -3 351 -11z"/>
<path d="M3937 7143 c-15 -14 -6 -53 13 -63 41 -22 81 12 60 51 -10 19 -59 27
-73 12z"/>
<path d="M2556 7115 c-9 -26 -7 -32 5 -12 6 10 9 21 6 23 -2 3 -7 -2 -11 -11z"/>
<path d="M1615 7040 c-13 -6 -5 -7 25 -3 25 3 47 7 49 9 9 8 -55 2 -74 -6z"/>
<path d="M1763 7043 c9 -2 25 -2 35 0 9 3 1 5 -18 5 -19 0 -27 -2 -17 -5z"/>
<path d="M2523 6990 c0 -25 2 -35 4 -22 2 12 2 32 0 45 -2 12 -4 2 -4 -23z"/>
<path d="M6381 7014 c-156 -42 -290 -177 -315 -316 l-7 -38 -274 0 -274 0 -20
-26 c-15 -19 -18 -31 -11 -43 22 -42 29 -43 304 -39 l266 3 0 -156 0 -156 57
-64 c31 -35 60 -65 65 -67 4 -2 8 96 8 217 l0 221 425 0 c412 0 426 1 445 20
11 11 20 27 20 35 0 8 -9 24 -20 35 -19 19 -33 20 -440 20 -339 0 -420 3 -420
13 0 7 13 33 29 58 66 103 143 144 271 144 71 0 94 -4 141 -26 32 -15 75 -45
98 -68 l41 -41 45 32 c25 18 45 37 45 44 0 21 -125 139 -174 163 -104 51 -204
62 -305 35z"/>
<path d="M1540 7010 c-8 -5 -10 -10 -5 -10 6 0 17 5 25 10 8 5 11 10 5 10 -5
0 -17 -5 -25 -10z"/>
<path d="M1475 6967 c-26 -22 -33 -34 -22 -34 9 0 14 4 11 8 -5 9 36 40 46 34
4 -2 7 2 7 10 0 19 3 20 -42 -18z"/>
<path d="M3990 6945 c-20 -25 -8 -50 25 -50 21 0 31 5 33 18 4 21 -14 47 -33
47 -7 0 -18 -7 -25 -15z"/>
<path d="M1974 6938 c-4 -7 -3 -10 1 -5 5 4 18 -1 29 -10 21 -18 21 -18 2 5
-22 26 -23 26 -32 10z"/>
<path d="M2357 6919 c7 -7 15 -10 18 -7 3 3 -2 9 -12 12 -14 6 -15 5 -6 -5z"/>
<path d="M2418 6923 c7 -3 16 -2 19 1 4 3 -2 6 -13 5 -11 0 -14 -3 -6 -6z"/>
<path d="M1415 6910 c-3 -5 -1 -10 4 -10 6 0 11 5 11 10 0 6 -2 10 -4 10 -3 0
-8 -4 -11 -10z"/>
<path d="M2035 6876 c10 -14 19 -26 22 -26 7 0 -17 39 -28 46 -6 3 -3 -5 6
-20z"/>
<path d="M1392 6878 c-17 -22 -53 -99 -50 -107 2 -5 17 20 34 55 31 66 34 73
16 52z"/>
<path d="M2071 6810 c0 -8 4 -22 9 -30 12 -18 12 -2 0 25 -6 13 -9 15 -9 5z"/>
<path d="M4055 6756 c-65 -28 -113 -121 -101 -195 8 -49 48 -105 90 -125 l36
-17 0 -89 0 -90 -45 0 c-74 0 -264 -29 -365 -56 -207 -56 -494 -192 -682 -324
-146 -102 -317 -260 -420 -389 -55 -68 -104 -134 -110 -147 l-11 -24 -490 0
-489 0 -20 25 c-26 34 -89 65 -130 65 -78 0 -148 -68 -148 -144 0 -78 67 -146
143 -146 46 0 71 12 118 56 l35 34 452 -2 452 -3 -49 -100 c-27 -55 -48 -101
-46 -103 2 -2 35 -10 73 -17 39 -8 94 -26 123 -41 71 -35 169 -121 209 -184
18 -27 34 -50 35 -50 2 0 1 16 -2 35 l-5 34 224 3 c124 2 232 2 241 0 14 -3 9
-13 -22 -50 -22 -26 -55 -77 -74 -114 -19 -37 -37 -64 -41 -60 -4 4 -6 -4 -4
-18 3 -24 -28 -175 -40 -195 -4 -5 -8 -46 -10 -90 -5 -107 -6 -124 -11 -119
-2 2 -14 -18 -26 -45 -44 -95 -162 -184 -278 -211 -52 -12 -686 -12 -818 -1
-69 6 -112 16 -150 34 -40 19 -48 21 -31 7 12 -10 22 -21 22 -24 0 -3 -44 -6
-98 -6 -110 0 -193 -18 -251 -54 -21 -14 -43 -22 -47 -18 -5 4 -6 3 -2 -2 4
-5 -13 -29 -38 -55 -56 -58 -102 -150 -110 -221 -13 -119 51 -259 149 -327 86
-58 119 -63 428 -63 l277 0 6 -31 c3 -17 6 -42 6 -56 0 -43 41 -146 81 -203
104 -149 235 -192 574 -188 l130 1 92 -74 c105 -83 102 -74 47 -177 -52 -96
-41 -141 30 -128 41 8 65 36 96 111 12 30 25 55 29 55 3 0 33 -16 65 -36 200
-120 458 -209 726 -250 52 -7 119 -14 148 -14 l52 0 0 -144 c0 -129 -2 -145
-17 -149 -10 -3 -43 -11 -73 -17 -211 -46 -391 -227 -435 -437 -8 -37 -15 -83
-15 -100 l0 -33 374 0 373 0 27 -26 c32 -33 33 -65 2 -101 l-24 -28 -367 -3
-367 -3 6 -32 c4 -18 16 -52 29 -77 l22 -45 516 -3 516 -2 21 47 c56 132 71
296 38 422 -55 214 -225 377 -443 428 l-73 17 0 141 0 141 128 12 c224 20 454
89 685 205 87 43 160 77 161 75 2 -1 13 -24 24 -50 24 -55 50 -71 152 -92 40
-9 91 -26 114 -40 63 -37 143 -128 178 -203 79 -167 31 -395 -110 -524 -82
-75 -166 -112 -267 -117 -100 -5 -163 17 -261 88 -37 28 -72 50 -79 50 -24 0
-48 -38 -41 -65 11 -41 95 -118 170 -155 118 -58 289 -54 417 10 209 106 347
352 324 578 -16 169 -91 305 -219 400 -72 53 -108 70 -196 92 -58 15 -67 20
-87 56 -13 21 -23 42 -23 46 0 3 19 17 43 31 23 14 68 48 100 76 l58 51 297 2
c190 1 263 4 202 8 l-95 6 95 3 c52 2 116 3 143 1 45 -2 47 0 47 24 0 24 -4
26 -42 28 l-43 1 40 4 c22 3 42 8 45 12 3 3 16 12 30 19 22 11 22 11 3 6 -13
-3 -23 -1 -23 5 0 6 6 11 13 11 8 0 7 4 -3 10 -8 5 -19 10 -25 10 -5 0 -3 -5
5 -10 11 -7 11 -10 2 -10 -7 0 -10 -4 -7 -10 3 -5 2 -10 -4 -10 -5 0 -11 10
-13 22 -3 20 -8 22 -48 20 -56 -3 -137 -21 -170 -37 -30 -14 -344 -21 -339 -7
2 5 30 38 61 73 31 35 69 79 85 97 l28 32 341 3 c370 2 374 3 374 57 0 54 -7
55 -337 57 -166 0 -304 3 -305 5 -1 1 15 33 35 69 50 90 112 239 133 322 9 37
15 69 13 71 -2 2 -32 -2 -67 -9 -44 -9 -82 -11 -124 -5 -64 9 -196 67 -272
120 -25 16 -49 30 -54 30 -6 0 -13 6 -15 13 -3 7 -6 5 -6 -5 -1 -11 -9 -18
-21 -18 -23 0 -26 13 -6 32 11 12 8 22 -23 64 -22 31 -42 49 -51 47 -13 -4
-13 -3 -1 5 11 8 12 14 4 24 -6 7 -16 31 -23 53 -7 22 -16 45 -20 50 -10 12
-5 241 5 273 7 20 4 22 -29 22 -20 0 -36 4 -36 8 0 4 15 6 34 4 33 -4 35 -2
67 65 43 90 140 188 229 231 94 45 253 65 330 43 18 -6 41 0 84 22 113 56 130
59 346 67 171 7 215 12 265 29 159 57 279 199 304 363 5 35 12 144 15 244 5
153 4 181 -9 181 -8 0 -12 -4 -9 -9 3 -4 -9 -8 -25 -8 -22 0 -31 5 -31 16 0 9
-6 14 -12 12 -10 -4 -15 -59 -19 -209 -6 -196 -10 -227 -40 -294 -36 -81 -125
-168 -196 -193 -69 -24 -186 -31 -377 -24 l-188 7 -37 95 c-21 52 -58 138 -84
190 -50 102 -49 110 10 110 47 0 137 46 183 94 62 64 83 116 88 223 4 88 3 93
-21 117 -31 31 -50 33 -77 6 -17 -17 -20 -33 -20 -100 0 -92 -18 -140 -70
-183 -35 -30 -116 -57 -170 -57 -34 0 -39 4 -94 85 -65 95 -269 312 -373 398
-180 146 -444 286 -683 361 -176 55 -243 71 -382 87 l-108 13 0 87 0 86 34 24
c79 54 107 148 67 227 -45 87 -149 126 -236 88z m138 -107 c28 -34 22 -84 -12
-108 -16 -12 -39 -21 -51 -21 -24 0 -61 17 -72 34 -11 16 -10 64 3 87 23 43
99 47 132 8z m14 -596 c-3 -10 -5 -2 -5 17 0 19 2 27 5 18 2 -10 2 -26 0 -35z
m-317 32 c0 -2 -21 -16 -47 -29 -52 -26 -224 -169 -261 -216 -20 -26 -26 -28
-47 -18 -15 7 -25 20 -25 32 0 17 -2 18 -10 6 -5 -8 -12 -11 -16 -7 -10 10 37
74 103 139 55 54 63 58 143 77 81 18 160 26 160 16z m-462 -134 c-28 -34 -34
-37 -44 -23 -10 14 -6 20 24 38 53 32 57 29 20 -15z m-119 -93 l23 -27 -125
-133 c-113 -121 -216 -239 -267 -307 l-19 -26 -24 29 c-13 16 -39 57 -57 92
-34 63 -34 63 -15 85 54 60 226 186 430 314 11 7 22 10 25 7 3 -4 16 -19 29
-34z m1756 -34 c18 -12 26 -14 21 -5 -5 7 26 -11 69 -40 42 -30 87 -61 99 -69
12 -8 31 -24 42 -35 12 -11 53 -51 92 -89 42 -39 69 -73 65 -80 -23 -39 -83
-124 -96 -134 -12 -11 -22 -3 -61 45 -25 32 -46 66 -46 76 0 9 -5 17 -12 17
-6 0 -36 28 -67 63 -30 34 -95 103 -144 154 -91 94 -104 122 -55 124 13 0 17
3 9 6 -11 5 -11 7 0 14 9 5 21 1 34 -10 11 -10 33 -27 50 -37z m-858 -81 c-2
-16 -4 -5 -4 22 0 28 2 40 4 28 2 -13 2 -35 0 -50z m-757 12 c17 -9 30 -20 30
-25 0 -5 23 -21 50 -36 36 -20 47 -30 38 -36 -9 -6 -6 -7 8 -3 21 5 92 -20
105 -38 3 -5 9 -8 13 -7 15 4 66 -12 61 -19 -2 -5 7 -6 22 -3 14 3 23 1 20 -4
-3 -5 7 -9 21 -10 15 -1 50 -6 78 -12 28 -6 81 -12 117 -13 l67 -2 0 -73 0
-72 61 -4 c34 -1 66 0 73 4 8 6 8 8 -1 8 -9 0 -13 20 -13 68 l0 69 50 2 c52 1
184 26 204 38 6 3 3 -3 -6 -14 -10 -11 -18 -23 -18 -28 0 -16 -44 -55 -62 -55
-20 0 -21 -1 -12 -24 9 -22 31 -20 37 4 4 15 14 20 41 20 35 0 36 1 37 43 1
23 1 46 0 50 -1 4 7 4 16 -1 38 -20 90 -23 103 -7 10 12 10 19 2 27 -14 14
-16 32 -3 23 5 -3 13 0 17 7 13 21 23 -23 23 -114 1 -81 3 -88 21 -88 11 0 20
-4 20 -10 0 -5 9 -10 19 -10 11 0 22 -6 25 -12 3 -7 3 -3 0 10 -4 17 -1 22 15
22 19 0 21 6 21 70 0 40 -4 70 -10 70 -19 0 -11 76 10 95 22 20 18 37 -8 29
-14 -5 -14 -4 -2 4 8 6 18 8 22 6 4 -3 8 1 8 9 0 8 16 24 35 35 l34 21 21 -26
c29 -38 79 -214 95 -340 l7 -52 138 -3 c119 -3 141 -6 159 -22 29 -26 28 -66
-1 -67 -19 -1 -20 -2 -5 -6 16 -4 18 -11 12 -40 -8 -43 3 -53 57 -53 34 0 40
-4 60 -42 13 -24 23 -47 23 -53 0 -5 9 -18 20 -28 11 -10 13 -15 5 -11 -8 4 0
-8 18 -26 21 -21 32 -40 29 -52 -3 -10 -2 -16 2 -13 4 2 15 -10 23 -28 l16
-33 -42 1 c-151 4 -166 5 -166 19 0 7 -10 17 -22 21 l-23 8 23 4 c18 4 22 11
22 44 0 32 -3 39 -20 39 -13 0 -20 7 -20 20 0 17 -7 20 -40 20 l-40 0 0 40 0
40 -74 0 c-63 0 -75 3 -79 18 -3 9 -5 -4 -6 -30 -1 -54 -18 -65 -24 -15 -2 17
-5 4 -5 -30 -2 -48 1 -63 12 -63 14 0 16 -23 3 -36 -4 -4 -7 -18 -7 -30 0 -22
3 -22 63 -19 34 2 51 0 38 -3 -49 -15 -34 -30 36 -37 112 -10 113 -12 3 -13
l-105 -1 -30 38 c-26 33 -39 41 -95 53 -63 14 -65 15 -62 44 1 16 6 80 10 142
l7 112 -37 0 c-29 0 -36 -3 -32 -15 4 -8 10 -15 15 -15 15 0 10 -49 -7 -75 -8
-13 -14 -36 -13 -52 4 -49 -1 -71 -17 -87 -14 -14 -18 -14 -42 1 -25 15 -25
14 3 -10 16 -14 33 -23 37 -21 4 3 5 -2 2 -10 -4 -11 0 -14 19 -11 21 4 19 -1
-22 -42 l-46 -47 -265 -1 -265 0 -5 142 c-3 78 -7 144 -10 146 -3 3 -29 7 -59
8 l-53 3 -2 -141 c-1 -78 -5 -145 -9 -149 -4 -4 -124 -9 -266 -12 l-260 -4
-36 37 c-34 37 -41 62 -20 77 6 4 2 8 -7 8 -10 0 -18 6 -18 13 -1 8 -5 7 -13
-4 -7 -9 -24 -18 -39 -21 -25 -5 -28 -2 -29 21 l-2 26 -4 -28 c-4 -23 -12 -29
-50 -40 -30 -8 -56 -24 -78 -49 l-34 -37 -235 -1 -235 -1 15 38 c22 53 91 170
126 216 25 31 36 37 68 37 21 0 41 4 44 9 3 4 1 36 -5 70 -9 59 -8 63 13 81
13 10 42 26 66 35 23 9 40 21 36 26 -3 5 -12 2 -20 -6 -29 -28 -26 -15 4 23
72 88 87 102 101 93 11 -7 9 -14 -14 -35 -15 -14 -31 -23 -36 -21 -4 3 -13 -5
-20 -17 -11 -21 -11 -22 5 -9 9 8 19 11 23 8 3 -3 17 7 31 23 15 17 32 30 39
30 6 0 15 9 18 20 3 11 14 20 23 20 15 0 15 2 2 10 -8 5 -25 10 -38 10 l-23 0
25 25 c14 14 29 25 35 25 5 0 11 4 13 9 2 5 12 11 23 13 18 3 20 -2 17 -57 -5
-75 2 -69 22 18 19 80 20 114 4 80 -6 -13 -17 -23 -24 -23 -7 0 -21 -3 -31 -7
-16 -6 -17 -5 -3 10 8 9 24 27 34 40 12 15 27 23 40 21 12 -3 15 -2 9 2 -7 3
-13 10 -13 15 0 6 4 7 10 4 5 -3 16 10 24 30 17 39 24 42 66 20z m1290 -85 c0
-5 -7 -7 -15 -4 -8 4 -15 8 -15 10 0 2 7 4 15 4 8 0 15 -4 15 -10z m-189 -70
c-26 -23 -46 -25 -57 -8 -4 6 -3 9 2 5 5 -3 20 1 34 9 37 20 49 16 21 -6z
m-1317 -95 c-7 -16 -24 -21 -24 -6 0 8 7 13 27 20 1 1 0 -6 -3 -14z m-486 -94
c15 -21 17 -28 6 -28 -8 0 -17 11 -20 23 -3 12 -13 25 -21 28 -10 4 -13 2 -10
-7 3 -8 -1 -14 -8 -14 -10 0 -11 5 -4 18 12 23 30 16 57 -20z m2886 -92 l16
-27 -105 -1 c-58 -1 -105 1 -105 4 0 4 24 35 53 71 l52 64 37 -42 c20 -24 44
-55 52 -69z m-3007 1 c1 -14 -4 -20 -19 -20 -20 0 -21 1 -3 20 10 11 19 20 19
20 1 0 2 -9 3 -20z m200 -16 c-3 -3 -12 -4 -19 -1 -8 3 -5 6 6 6 11 1 17 -2
13 -5z m2783 -124 c-63 -3 -100 -7 -82 -8 17 -1 32 -6 32 -12 0 -5 7 -10 15
-10 8 0 15 5 15 10 0 6 9 10 20 10 13 0 20 -7 20 -20 0 -17 7 -20 46 -20 25 0
43 4 39 9 -3 5 0 13 6 17 8 4 9 3 5 -5 -4 -6 0 -14 8 -17 9 -3 16 -13 16 -21
0 -8 9 -26 20 -40 11 -14 20 -31 20 -38 0 -6 14 -39 30 -73 46 -95 47 -94 -71
-90 -91 2 -102 5 -109 23 -4 11 -8 24 -8 29 0 5 -6 13 -14 17 -10 7 -10 9 0 9
7 0 10 5 7 10 -4 6 -11 8 -16 5 -5 -4 -9 -1 -9 6 0 14 -110 201 -125 211 -5 4
49 7 120 6 l130 -2 -115 -6z m-2953 -216 c-3 -3 -12 -4 -19 -1 -8 3 -5 6 6 6
11 1 17 -2 13 -5z m-13 -68 c-4 -11 -18 -16 -48 -15 l-41 1 37 12 c20 6 40 14
44 19 11 11 15 2 8 -17z m2584 7 c-27 -2 -69 -2 -95 0 -27 2 -5 3 47 3 52 0
74 -1 48 -3z m-1818 -28 c63 -32 78 -94 34 -138 -37 -37 -88 -45 -122 -20 -81
59 -53 143 56 172 2 1 16 -6 32 -14z m1551 -24 c46 -47 37 -106 -23 -137 -77
-40 -170 38 -132 111 21 40 44 54 87 55 29 0 45 -7 68 -29z m-221 -121 c19
-49 39 -70 88 -92 l42 -19 0 -184 0 -185 -294 0 c-161 0 -314 -3 -340 -6 l-46
-7 0 149 c0 82 3 200 7 262 l6 112 236 1 c130 0 245 4 256 9 24 9 28 6 45 -40z
m-660 -225 l0 -255 -340 0 -340 0 0 188 0 187 43 18 c44 18 78 53 91 95 l7 22
270 0 269 0 0 -255z m1108 248 c-73 -4 -101 -16 -60 -26 16 -4 16 -5 0 -6 -10
0 -22 7 -27 18 -10 17 -5 18 77 18 l87 -1 -77 -3z m-37 -65 c11 -21 11 -22 -4
-9 -10 7 -17 17 -17 22 0 15 9 10 21 -13z m-1854 -186 c-5 -70 -6 -155 -3
-189 l5 -63 -91 0 -91 0 7 63 c12 117 54 244 108 323 l22 32 26 -19 25 -19 -8
-128z m1751 116 c47 -86 92 -245 92 -330 l0 -38 -80 0 -80 0 0 83 c-1 45 -5
129 -10 187 l-10 105 28 22 c15 12 28 22 29 23 0 0 14 -24 31 -52z m-969 -708
l2 -240 -239 0 c-132 0 -253 -3 -269 -6 -27 -5 -33 -1 -59 37 -17 25 -46 51
-71 63 l-42 21 -1 177 0 178 293 3 c160 1 313 3 338 5 l46 2 2 -240z m-783 44
l9 -185 -24 -16 c-23 -15 -26 -15 -47 10 -29 34 -69 142 -94 252 -29 134 -34
125 64 125 l83 0 9 -186z m1574 6 c0 -163 -2 -181 -17 -186 -54 -17 -86 -38
-104 -69 l-21 -35 -269 0 -269 0 0 235 0 235 340 0 340 0 0 -180z m270 141 c0
-77 -71 -276 -122 -345 -13 -16 -17 -17 -37 -5 -20 13 -22 20 -17 69 3 30 8
115 12 188 l6 132 79 0 79 0 0 -39z m120 -115 c0 -3 -4 -8 -10 -11 -5 -3 -10
-1 -10 4 0 6 5 11 10 11 6 0 10 -2 10 -4z m-33 -78 c-3 -8 -6 -5 -6 6 -1 11 2
17 5 13 3 -3 4 -12 1 -19z m-13 -47 c3 -5 -1 -14 -8 -20 -12 -10 -13 -8 -9 8
6 23 9 25 17 12z m-36 -82 c-9 -6 -5 -9 15 -9 25 0 27 -3 27 -40 0 -31 -4 -40
-17 -42 -10 -1 14 -4 52 -8 64 -6 60 -7 -47 -8 l-118 -2 45 66 c25 36 46 71
46 77 1 7 3 4 6 -7 3 -10 -1 -22 -9 -27z m246 -35 c4 -11 1 -14 -11 -12 -9 2
-18 9 -21 16 -6 18 25 15 32 -4z m-3229 -99 c69 -278 222 -571 410 -788 l77
-89 -163 4 c-154 3 -167 5 -214 30 -62 32 -129 103 -157 166 -16 35 -22 75
-26 160 l-5 112 -331 0 c-318 1 -333 1 -386 23 -94 38 -148 135 -137 243 6 62
25 101 75 156 70 78 70 78 476 75 l359 -2 22 -90z m290 87 c6 -4 16 -19 22
-34 l13 -28 -104 0 -104 0 -4 30 -4 29 45 -4 c35 -4 40 -3 21 4 -19 7 -11 9
40 10 36 0 70 -3 75 -7z m654 -35 c0 -9 -2 -8 -6 1 -2 6 -10 9 -15 6 -7 -4 -8
-2 -4 5 9 13 26 5 25 -12z m302 -26 c38 -39 39 -80 1 -122 -23 -26 -36 -32
-71 -32 -90 0 -129 95 -63 154 44 40 93 39 133 0z m1520 0 c20 -20 29 -39 29
-61 0 -45 -47 -90 -93 -90 -54 0 -97 41 -97 91 0 84 100 121 161 60z m-2271 3
c0 -2 -11 -4 -25 -4 -14 0 -25 4 -25 9 0 4 11 6 25 3 14 -2 25 -6 25 -8z m393
-1 c-40 -2 -107 -2 -150 0 -43 1 -10 3 72 3 83 0 118 -2 78 -3z m755 -122
l242 -1 0 -157 0 -158 55 0 55 0 0 158 0 157 73 0 c41 0 162 3 270 7 l196 6
10 -24 c5 -14 16 -31 25 -38 21 -18 20 -33 -3 -57 -10 -11 -22 -30 -25 -42 -4
-12 -11 -20 -16 -17 -5 3 -11 1 -14 -4 -4 -5 1 -8 10 -7 9 1 22 11 28 22 6 11
18 20 26 19 11 0 16 -15 18 -62 2 -39 7 -63 14 -63 9 0 9 -3 0 -12 -18 -18
-15 -28 8 -28 13 0 20 -7 20 -20 0 -11 6 -20 14 -20 17 0 25 61 20 152 l-3 67
55 11 c58 12 118 54 129 91 6 19 16 20 251 19 134 -1 244 -4 244 -8 -1 -4 -9
-23 -20 -42 l-19 -35 6 39 6 38 -169 -2 c-93 -2 -182 -5 -197 -7 -27 -5 -28
-7 -22 -39 9 -49 -14 -71 -60 -57 -27 9 -32 8 -28 -3 3 -8 0 -14 -6 -14 -6 0
-11 -5 -11 -11 0 -5 5 -7 11 -3 8 5 10 -28 7 -120 l-4 -126 128 0 c142 0 148
-4 107 -61 l-20 -29 -145 0 -144 0 0 -37 c-1 -21 -7 -81 -14 -133 -8 -52 -12
-96 -11 -98 2 -2 9 13 16 32 12 33 39 51 39 26 0 -5 15 -10 33 -10 l32 0 -25
-19 c-13 -11 -29 -17 -34 -14 -5 3 -6 1 -2 -6 4 -6 13 -8 19 -5 7 4 1 -4 -13
-17 -13 -13 -28 -24 -31 -24 -4 0 -11 -4 -16 -9 -5 -5 -3 -6 5 -2 16 9 16 -2
-1 -18 -7 -8 -35 -41 -62 -74 l-49 -61 -31 22 c-16 11 -32 24 -35 27 -9 11
-75 48 -155 88 -97 47 -243 88 -347 97 l-77 7 -3 76 -3 77 -62 3 -63 3 0 -79
0 -79 -82 -6 c-46 -3 -123 -17 -171 -32 -49 -14 -93 -22 -99 -19 -6 4 -8 3 -5
-3 8 -12 -170 -86 -185 -77 -6 4 -9 3 -5 -2 3 -5 -20 -28 -51 -51 l-56 -41
-32 36 c-18 20 -30 39 -27 42 2 2 8 -2 13 -10 14 -22 12 -8 -5 41 -17 46 -52
238 -57 304 l-3 40 -144 3 c-152 3 -166 7 -183 51 -7 19 -5 33 8 57 27 49 15
64 -52 64 -46 0 -59 4 -75 23 -10 12 -18 27 -19 33 0 6 -7 17 -15 24 -9 7 -13
20 -10 29 3 8 3 12 -1 8 -10 -10 -36 31 -28 45 4 6 3 8 -3 5 -6 -4 -28 27 -51
68 l-40 75 258 0 259 0 7 -22 c4 -13 6 -25 5 -27 -2 -2 4 -8 13 -13 9 -5 14
-13 12 -17 -3 -4 0 -8 7 -9 7 0 39 -9 72 -20 48 -15 66 -17 90 -8 48 17 85 47
110 86 17 28 29 36 47 34 12 -1 132 -3 266 -3z m-1247 -58 c13 -32 23 -63 23
-70 -1 -7 3 -11 10 -10 6 1 10 -8 10 -20 -1 -12 4 -21 10 -20 6 1 10 -9 8 -23
-1 -18 1 -21 7 -11 7 11 11 9 20 -8 7 -12 9 -27 5 -33 -4 -6 -3 -8 3 -5 6 4
18 -2 28 -13 10 -11 15 -20 12 -20 -3 0 9 -15 26 -32 l32 -33 -135 -3 c-119
-2 -136 -1 -148 15 -7 10 -10 23 -7 31 2 7 1 11 -4 7 -5 -3 -22 21 -37 52 -25
54 -104 242 -104 250 0 1 49 3 108 3 l108 0 25 -57z m2599 7 c0 -5 -4 -10 -10
-10 -5 0 -10 5 -10 10 0 6 5 10 10 10 6 0 10 -4 10 -10z m283 -90 c-37 -64
-59 -90 -68 -82 -5 4 -5 2 -2 -4 7 -12 -28 -74 -42 -74 -63 0 -92 32 -51 58
11 7 20 23 20 37 0 14 5 25 10 25 6 0 10 -9 10 -20 0 -11 5 -20 10 -20 6 0 10
9 10 20 0 13 7 20 19 20 15 0 21 10 26 40 4 25 12 40 21 40 8 0 14 4 14 9 0
14 34 19 42 7 4 -6 -5 -31 -19 -56z m285 -166 l-23 -49 -133 -3 c-133 -3 -152
3 -112 31 11 8 18 16 16 18 -2 2 3 11 12 19 14 13 15 12 9 -3 -3 -9 -2 -17 3
-17 6 0 11 6 11 13 1 6 4 -1 8 -18 5 -25 11 -29 31 -27 14 2 27 8 28 13 2 5
12 9 23 9 10 0 19 5 19 12 0 9 3 9 12 0 18 -18 28 -15 28 8 0 12 7 20 16 20 8
0 22 7 31 15 8 8 19 13 24 10 5 -4 9 0 10 7 0 8 2 9 5 2 3 -7 -5 -34 -18 -60z
m-478 -1 c-8 -3 -18 -11 -22 -17 -5 -7 -8 -4 -8 7 0 11 7 17 23 16 15 0 17 -2
7 -6z m-17 -58 c1 -6 -11 -11 -28 -13 -29 -2 -29 -2 -10 13 20 16 35 16 38 0z
m-2469 -117 c-4 -7 -27 -39 -52 -71 -42 -56 -45 -57 -63 -41 -20 18 -79 106
-79 117 0 4 45 7 101 7 77 0 99 -3 93 -12z m2870 0 c-20 -34 -109 -138 -116
-136 -5 2 -27 36 -49 76 l-40 72 106 0 c82 0 105 -3 99 -12z m-2728 -70 c16
-24 27 -47 26 -51 -1 -5 2 -6 7 -3 7 5 36 -28 44 -51 1 -4 20 -26 42 -48 121
-126 265 -288 265 -300 0 -13 -42 -55 -54 -55 -14 0 -180 95 -241 139 -65 46
-201 169 -221 199 -14 22 -13 27 17 80 40 72 78 132 83 132 2 0 16 -19 32 -42z
m2264 23 c-5 -11 -15 -23 -21 -27 -6 -3 -3 5 6 20 20 30 30 35 15 7z m223
-102 l46 -86 -42 -40 c-99 -96 -251 -212 -338 -259 l-94 -51 -27 25 c-16 14
-28 30 -28 35 0 16 153 176 163 170 6 -3 7 -1 4 4 -4 6 19 42 51 79 31 38 88
108 126 156 79 100 66 103 139 -33z m-296 14 c-20 -21 -28 -23 -43 -14 -17 11
-17 11 4 6 18 -5 22 -2 22 17 0 18 2 20 10 8 9 -14 14 -7 11 13 -1 5 4 5 10 2
7 -5 3 -16 -14 -32z m-1525 -414 c54 -64 184 -166 263 -207 56 -29 58 -31 29
-32 -36 0 -219 36 -238 47 -7 5 -28 26 -47 48 -18 22 -55 63 -81 92 -26 28
-48 55 -48 60 0 9 50 41 67 42 6 1 31 -22 55 -50z m865 -161 c-22 -20 -37 -23
-37 -9 0 5 9 12 20 16 11 3 19 9 19 13 -1 4 -1 14 1 22 1 11 4 9 9 -5 6 -14 2
-25 -12 -37z m-248 -50 c1 17 7 22 26 22 20 0 25 -5 25 -25 0 -23 3 -25 28
-19 22 5 25 4 14 -7 -10 -11 -19 -11 -43 -2 -22 9 -38 9 -50 2 -17 -9 -19 -6
-18 28 1 38 1 38 9 8 6 -24 8 -26 9 -7z m176 12 c8 -13 -15 -13 -35 0 -12 8
-11 10 7 10 12 0 25 -4 28 -10z m-25 -14 c0 -3 -4 -8 -10 -11 -5 -3 -10 -1
-10 4 0 6 5 11 10 11 6 0 10 -2 10 -4z"/>
<path d="M3630 5620 c0 -5 5 -10 11 -10 5 0 7 5 4 10 -3 6 -8 10 -11 10 -2 0
-4 -4 -4 -10z"/>
<path d="M4243 5533 c9 -2 23 -2 30 0 6 3 -1 5 -18 5 -16 0 -22 -2 -12 -5z"/>
<path d="M4213 5490 c0 -25 2 -35 4 -22 2 12 2 32 0 45 -2 12 -4 2 -4 -23z"/>
<path d="M4830 5479 c0 -5 5 -7 10 -4 6 3 10 8 10 11 0 2 -4 4 -10 4 -5 0 -10
-5 -10 -11z"/>
<path d="M3417 5430 c-7 -32 0 -63 13 -55 7 4 3 75 -5 83 -1 1 -5 -11 -8 -28z"/>
<path d="M3440 5429 c0 -17 5 -20 32 -17 22 2 34 9 36 21 3 14 -4 17 -32 17
-30 0 -36 -4 -36 -21z"/>
<path d="M3513 5383 c9 -2 23 -2 30 0 6 3 -1 5 -18 5 -16 0 -22 -2 -12 -5z"/>
<path d="M4030 5379 c0 -5 5 -7 10 -4 6 3 10 8 10 11 0 2 -4 4 -10 4 -5 0 -10
-5 -10 -11z"/>
<path d="M4230 5361 c0 -5 5 -13 10 -16 6 -3 10 -2 10 4 0 5 -4 13 -10 16 -5
3 -10 2 -10 -4z"/>
<path d="M4480 5196 c0 -2 7 -7 16 -10 8 -3 12 -2 9 4 -6 10 -25 14 -25 6z"/>
<path d="M4556 5161 c9 -9 34 -9 34 -1 0 5 -9 8 -20 7 -10 -1 -17 -3 -14 -6z"/>
<path d="M5365 5100 c-3 -5 -1 -10 4 -10 6 0 11 5 11 10 0 6 -2 10 -4 10 -3 0
-8 -4 -11 -10z"/>
<path d="M3513 5036 c0 -8 6 -12 14 -9 7 3 10 9 7 14 -8 14 -21 11 -21 -5z"/>
<path d="M5390 5020 c0 -5 5 -10 10 -10 6 0 10 5 10 10 0 6 -4 10 -10 10 -5 0
-10 -4 -10 -10z"/>
<path d="M1513 3583 c-7 -2 -13 -9 -13 -14 0 -6 8 -5 20 1 11 6 26 8 32 4 7
-4 8 -3 4 4 -7 12 -22 14 -43 5z"/>
<path d="M1854 3556 c-63 -53 -16 -155 65 -142 74 11 97 93 40 140 -38 32 -70
33 -105 2z"/>
<path d="M1465 3543 c-6 -10 -10 -36 -10 -58 0 -31 5 -42 22 -51 13 -6 20 -14
15 -19 -4 -5 -1 -5 6 -1 9 6 9 12 1 29 -7 12 -17 25 -22 29 -7 4 -7 11 0 20
12 14 15 68 4 68 -3 0 -11 -8 -16 -17z"/>
<path d="M2480 3700 c0 -5 5 -10 11 -10 5 0 7 5 4 10 -3 6 -8 10 -11 10 -2 0
-4 -4 -4 -10z"/>
<path d="M2358 3683 c6 -2 18 -2 25 0 6 3 1 5 -13 5 -14 0 -19 -2 -12 -5z"/>
<path d="M2808 3473 c7 -3 16 -2 19 1 4 3 -2 6 -13 5 -11 0 -14 -3 -6 -6z"/>
<path d="M3030 3430 c0 -15 -7 -20 -29 -20 -17 0 -33 5 -36 10 -3 6 -19 10
-35 10 -16 0 -32 -4 -35 -10 -4 -6 7 -10 24 -10 29 0 31 -2 31 -40 0 -40 0
-40 39 -40 39 0 40 -1 43 -37 l3 -38 70 -6 c39 -4 73 -4 77 0 3 3 8 45 10 94
l3 87 -42 0 c-24 0 -43 5 -43 10 0 6 -18 10 -40 10 -33 0 -40 -3 -40 -20z"/>
<path d="M3245 3420 c-8 -13 9 -20 24 -11 10 6 9 10 -3 14 -8 3 -18 2 -21 -3z"/>
<path d="M3384 3285 c0 -49 1 -71 3 -48 2 23 2 64 0 90 -2 26 -3 8 -3 -42z"/>
<path d="M4685 3350 c3 -5 11 -10 16 -10 6 0 7 5 4 10 -3 6 -11 10 -16 10 -6
0 -7 -4 -4 -10z"/>
<path d="M4658 3333 c7 -3 16 -2 19 1 4 3 -2 6 -13 5 -11 0 -14 -3 -6 -6z"/>
<path d="M4610 3299 c0 -5 5 -7 10 -4 6 3 10 8 10 11 0 2 -4 4 -10 4 -5 0 -10
-5 -10 -11z"/>
<path d="M2958 3253 c6 -2 18 -2 25 0 6 3 1 5 -13 5 -14 0 -19 -2 -12 -5z"/>
<path d="M4972 3230 c0 -14 2 -19 5 -12 2 6 2 18 0 25 -3 6 -5 1 -5 -13z"/>
<path d="M3237 3226 c-3 -8 -23 -17 -44 -19 -29 -3 -25 -4 19 -5 52 -2 56 0
51 18 -6 23 -19 26 -26 6z"/>
<path d="M4475 3222 c-16 -10 -42 -22 -57 -25 -32 -8 -37 -23 -8 -23 10 0 17
2 15 5 -3 2 12 13 33 23 35 19 61 38 52 38 -3 0 -18 -8 -35 -18z"/>
<path d="M4350 3170 c0 -5 7 -7 15 -4 8 4 15 8 15 10 0 2 -7 4 -15 4 -8 0 -15
-4 -15 -10z"/>
<path d="M3898 3163 c7 -3 16 -2 19 1 4 3 -2 6 -13 5 -11 0 -14 -3 -6 -6z"/>
<path d="M4558 3163 c6 -2 18 -2 25 0 6 3 1 5 -13 5 -14 0 -19 -2 -12 -5z"/>
<path d="M4808 3163 c12 -2 32 -2 45 0 12 2 2 4 -23 4 -25 0 -35 -2 -22 -4z"/>
<path d="M3401 3048 c0 -16 2 -18 6 -8 3 8 11 18 17 22 7 5 4 8 -6 8 -12 0
-18 -7 -17 -22z"/>
<path d="M3478 3063 c23 -2 59 -2 80 0 20 2 1 4 -43 4 -44 0 -61 -2 -37 -4z"/>
<path d="M3712 3063 c48 -2 129 -2 180 0 51 1 12 3 -87 3 -99 0 -141 -2 -93
-3z"/>
<path d="M4537 3060 c155 -3 285 -9 289 -13 4 -4 -12 -7 -36 -7 -54 0 -49 -8
8 -11 34 -2 42 -7 44 -23 3 -41 3 -45 12 -53 5 -4 7 6 4 25 -2 17 -1 32 4 32
4 0 8 14 8 30 l0 30 -307 -2 -308 -2 282 -6z"/>
<path d="M4538 3043 c17 -2 47 -2 65 0 17 2 3 4 -33 4 -36 0 -50 -2 -32 -4z"/>
<path d="M3470 3020 c0 -5 9 -10 20 -10 11 0 20 5 20 10 0 6 -9 10 -20 10 -11
0 -20 -4 -20 -10z"/>
<path d="M4673 3013 l-123 -4 0 -39 0 -40 120 0 c66 0 120 4 120 9 0 5 9 11
20 14 11 3 20 14 20 24 0 19 -19 45 -29 41 -4 -1 -61 -4 -128 -5z m140 -17 c6
-16 -1 -26 -19 -26 -7 0 -10 8 -7 20 6 23 19 26 26 6z"/>
<path d="M3421 2914 c0 -11 3 -14 6 -6 3 7 2 16 -1 19 -3 4 -6 -2 -5 -13z"/>
<path d="M3845 2840 c3 -5 8 -10 11 -10 2 0 4 5 4 10 0 6 -5 10 -11 10 -5 0
-7 -4 -4 -10z"/>
<path d="M2428 3533 c12 -2 32 -2 45 0 12 2 2 4 -23 4 -25 0 -35 -2 -22 -4z"/>
<path d="M1325 6705 c-6 -44 8 -145 26 -175 12 -21 11 3 -1 35 -6 15 -11 62
-11 106 0 43 -2 79 -4 79 -1 0 -6 -20 -10 -45z"/>
<path d="M2373 6706 c-39 -18 -53 -43 -53 -95 0 -107 135 -149 190 -59 24 40
25 71 4 107 -30 50 -88 70 -141 47z"/>
<path d="M2092 6680 c0 -19 2 -27 5 -17 2 9 2 25 0 35 -3 9 -5 1 -5 -18z"/>
<path d="M2081 6584 c0 -11 3 -14 6 -6 3 7 2 16 -1 19 -3 4 -6 -2 -5 -13z"/>
<path d="M5148 6535 c-26 -6 -58 -19 -73 -29 -36 -23 -82 -99 -90 -147 -20
-115 93 -239 217 -239 90 1 182 73 207 163 41 143 -112 290 -261 252z"/>
<path d="M1360 6504 c0 -6 7 -19 15 -30 8 -10 14 -14 14 -9 0 6 -6 19 -14 29
-8 11 -15 15 -15 10z"/>
<path d="M1390 6446 c0 -2 8 -10 18 -17 15 -13 16 -12 3 4 -13 16 -21 21 -21
13z"/>
<path d="M1435 6390 c10 -11 22 -20 27 -20 4 0 -1 9 -12 20 -11 11 -23 20 -27
20 -3 0 2 -9 12 -20z"/>
<path d="M4750 6386 c-20 -25 -8 -61 22 -64 39 -5 56 30 28 58 -24 24 -33 25
-50 6z"/>
<path d="M5610 6375 c-16 -19 -9 -49 14 -53 35 -7 49 40 17 57 -14 8 -22 7
-31 -4z"/>
<path d="M1955 6370 c-4 -6 -10 -8 -14 -6 -4 3 -8 -1 -8 -9 0 -13 4 -12 19 2
18 16 22 23 14 23 -3 0 -8 -5 -11 -10z"/>
<path d="M1492 6363 c-6 -2 -10 -9 -6 -14 8 -14 21 -11 21 6 0 8 -1 15 -1 14
-1 0 -7 -3 -14 -6z"/>
<path d="M1045 6290 c-14 -31 -16 -43 -7 -52 9 -9 15 -9 24 0 9 9 9 15 0 24
-14 14 -16 32 -3 23 5 -3 13 0 17 6 4 8 3 9 -4 5 -7 -4 -12 -3 -12 2 0 16 13
22 26 11 9 -7 18 -7 31 0 14 8 15 10 3 11 -8 0 -24 3 -36 6 -16 4 -24 -2 -39
-36z"/>
<path d="M1531 6326 c2 -2 15 -9 29 -15 24 -11 24 -11 6 3 -16 13 -49 24 -35
12z"/>
<path d="M6307 6324 c-11 -11 5 -34 23 -34 18 0 34 23 23 34 -4 3 -14 6 -23 6
-9 0 -19 -3 -23 -6z"/>
<path d="M2313 6306 c-61 -20 -100 -52 -133 -109 -67 -117 -19 -268 101 -322
l39 -18 0 -166 c0 -187 7 -211 60 -211 50 0 60 35 60 214 l0 154 45 22 c78 38
128 121 128 213 -1 157 -153 270 -300 223z m139 -117 c54 -39 72 -112 43 -173
-46 -97 -198 -84 -234 21 -42 118 91 223 191 152z"/>
<path d="M1924 6210 c0 -58 1 -81 3 -52 2 28 2 76 0 105 -2 28 -3 5 -3 -53z"/>
<path d="M1197 6279 c7 -7 15 -10 18 -7 3 3 -2 9 -12 12 -14 6 -15 5 -6 -5z"/>
<path d="M1230 6266 c0 -2 7 -7 16 -10 8 -3 12 -2 9 4 -6 10 -25 14 -25 6z"/>
<path d="M1100 6241 c0 -5 -8 -11 -17 -13 -16 -3 -15 -5 2 -9 16 -5 21 -1 22
12 1 11 0 19 -3 19 -2 0 -4 -4 -4 -9z"/>
<path d="M1741 6218 c11 -15 25 -28 30 -28 16 0 10 15 -11 28 -12 7 -19 16
-16 21 3 4 -1 8 -9 8 -11 0 -9 -7 6 -29z"/>
<path d="M1310 6226 c0 -2 7 -7 16 -10 8 -3 12 -2 9 4 -6 10 -25 14 -25 6z"/>
<path d="M2820 6195 c-26 -31 13 -82 44 -56 22 18 20 48 -3 61 -25 13 -26 13
-41 -5z"/>
<path d="M1780 6170 c0 -6 7 -13 15 -16 8 -4 15 -12 15 -19 0 -7 8 -19 18 -26
14 -11 15 -11 5 1 -7 8 -13 21 -13 30 0 8 -9 21 -20 28 -13 7 -20 8 -20 2z"/>
<path d="M5722 6142 c-8 -6 -2 -9 17 -9 17 0 28 4 25 9 -7 10 -25 10 -42 0z"/>
<path d="M5855 6140 c3 -5 8 -10 11 -10 2 0 4 5 4 10 0 6 -5 10 -11 10 -5 0
-7 -4 -4 -10z"/>
<path d="M5890 6136 c0 -2 7 -7 16 -10 8 -3 12 -2 9 4 -6 10 -25 14 -25 6z"/>
<path d="M5646 6105 c-19 -14 -19 -15 8 -15 15 0 25 4 22 9 -4 5 0 12 6 14 9
4 8 6 -2 6 -8 0 -24 -6 -34 -14z"/>
<path d="M5950 6100 c0 -5 5 -10 11 -10 5 0 7 5 4 10 -3 6 -8 10 -11 10 -2 0
-4 -4 -4 -10z"/>
<path d="M1340 6086 c0 -2 7 -9 15 -16 9 -7 15 -8 15 -2 0 5 -7 12 -15 16 -8
3 -15 4 -15 2z"/>
<path d="M1850 6081 c0 -6 4 -13 10 -16 6 -3 7 1 4 9 -7 18 -14 21 -14 7z"/>
<path d="M5616 6058 c3 -5 10 -6 15 -3 13 9 11 12 -6 12 -8 0 -12 -4 -9 -9z"/>
<path d="M1880 6042 c0 -5 7 -15 15 -22 8 -7 15 -8 15 -2 0 5 -7 15 -15 22 -8
7 -15 8 -15 2z"/>
<path d="M1922 6030 c0 -14 2 -19 5 -12 2 6 2 18 0 25 -3 6 -5 1 -5 -13z"/>
<path d="M1445 5991 c-3 -5 -2 -12 3 -15 5 -3 9 1 9 9 0 17 -3 19 -12 6z"/>
<path d="M5567 5993 c-4 -3 -7 -11 -7 -17 0 -6 5 -5 12 2 6 6 9 14 7 17 -3 3
-9 2 -12 -2z"/>
<path d="M6051 5944 c0 -11 3 -14 6 -6 3 7 2 16 -1 19 -3 4 -6 -2 -5 -13z"/>
<path d="M5542 5900 c0 -19 2 -27 5 -17 2 9 2 25 0 35 -3 9 -5 1 -5 -18z"/>
<path d="M6062 5900 c0 -14 2 -19 5 -12 2 6 2 18 0 25 -3 6 -5 1 -5 -13z"/>
<path d="M7440 5838 c0 -40 -3 -84 -5 -98 l-6 -25 11 24 c6 13 11 53 12 87 2
40 6 60 13 56 5 -3 4 2 -4 11 -7 9 -15 17 -17 17 -2 0 -4 -33 -4 -72z"/>
<path d="M7470 5855 c0 -15 18 -40 24 -34 3 3 -1 14 -9 25 -8 10 -14 15 -15 9z"/>
<path d="M2655 5839 c-12 -19 4 -59 25 -59 23 0 43 32 34 54 -7 18 -49 22 -59
5z"/>
<path d="M1640 5831 c0 -6 4 -13 10 -16 6 -3 7 1 4 9 -7 18 -14 21 -14 7z"/>
<path d="M7490 5794 c0 -8 -7 -22 -15 -30 -8 -9 -15 -21 -14 -27 0 -9 2 -8 6
1 2 6 11 12 18 12 7 0 16 -6 18 -12 3 -7 6 -2 7 12 l1 25 10 -23 c5 -13 7 -28
3 -33 -3 -5 -1 -9 5 -9 5 0 11 -6 14 -12 2 -7 2 0 -1 17 -9 59 -52 124 -52 79z"/>
<path d="M710 5688 c-68 -35 -103 -86 -108 -158 -6 -80 23 -141 86 -181 57
-36 97 -44 151 -29 50 13 119 72 138 117 17 42 17 117 -1 151 -21 39 -75 89
-118 106 -52 22 -96 20 -148 -6z"/>
<path d="M7417 5673 c-4 -3 -7 -16 -6 -27 0 -19 1 -19 10 3 10 24 8 36 -4 24z"/>
<path d="M7553 5600 c0 -41 2 -58 4 -37 2 20 2 54 0 75 -2 20 -4 3 -4 -38z"/>
<path d="M7376 5575 c-3 -9 -6 -22 -5 -28 0 -7 5 -1 10 12 5 13 8 26 5 28 -2
2 -6 -3 -10 -12z"/>
<path d="M6412 5508 c-31 -31 10 -75 43 -48 21 17 19 37 -4 50 -24 13 -24 13
-39 -2z"/>
<path d="M7551 5504 c0 -11 3 -14 6 -6 3 7 2 16 -1 19 -3 4 -6 -2 -5 -13z"/>
<path d="M2184 5496 c-10 -25 0 -51 20 -54 27 -6 48 25 35 49 -12 22 -47 25
-55 5z"/>
<path d="M7335 5500 c3 -5 8 -10 11 -10 2 0 4 5 4 10 0 6 -5 10 -11 10 -5 0
-7 -4 -4 -10z"/>
<path d="M7542 5430 c0 -14 2 -19 5 -12 2 6 2 18 0 25 -3 6 -5 1 -5 -13z"/>
<path d="M7245 5420 c-3 -6 1 -7 9 -4 18 7 21 14 7 14 -6 0 -13 -4 -16 -10z"/>
<path d="M6312 5319 c-78 -39 -122 -139 -101 -225 16 -63 78 -128 139 -144
200 -53 344 177 206 328 -57 63 -163 81 -244 41z"/>
<path d="M7470 5291 c0 -6 4 -13 10 -16 6 -3 7 1 4 9 -7 18 -14 21 -14 7z"/>
<path d="M7430 5241 c0 -6 4 -13 10 -16 6 -3 7 1 4 9 -7 18 -14 21 -14 7z"/>
<path d="M7624 5205 c-15 -23 -15 -27 0 -50 28 -43 86 -26 86 25 0 51 -58 68
-86 25z"/>
<path d="M520 5184 c0 -23 16 -34 38 -26 6 2 12 11 12 20 0 13 -2 13 -13 -3
-11 -14 -16 -15 -22 -5 -5 8 -1 18 10 26 16 12 16 13 -4 11 -15 -1 -21 -8 -21
-23z"/>
<path d="M7350 5130 c-9 -6 -10 -10 -3 -10 6 0 15 5 18 10 8 12 4 12 -15 0z"/>
<path d="M723 5066 c-213 -79 -331 -318 -264 -535 26 -82 60 -138 120 -195
208 -193 562 -128 698 129 102 193 38 424 -153 556 -104 71 -277 91 -401 45z
m87 -356 c40 -40 14 -110 -41 -110 -49 0 -69 16 -69 55 0 42 29 75 65 75 14 0
34 -9 45 -20z m228 4 c15 -10 22 -25 22 -48 0 -48 -21 -70 -65 -70 -43 0 -65
22 -65 66 0 56 60 86 108 52z"/>
<path d="M1618 5053 c18 -2 45 -2 60 0 15 2 0 4 -33 4 -33 0 -45 -2 -27 -4z"/>
<path d="M1871 5006 c-9 -11 -10 -20 -1 -36 21 -39 83 -7 67 34 -8 20 -50 21
-66 2z"/>
<path d="M7704 4975 c-4 -10 0 -24 10 -33 16 -16 18 -16 32 3 18 24 13 39 -14
43 -14 2 -25 -3 -28 -13z"/>
<path d="M7340 4839 c-126 -21 -258 -116 -313 -225 -118 -234 4 -519 256 -596
95 -29 228 -23 307 13 67 31 147 102 188 167 55 84 76 216 52 320 -49 212
-271 357 -490 321z m1 -380 c28 -28 22 -76 -13 -102 -24 -18 -30 -19 -58 -7
-37 15 -51 45 -38 80 19 52 72 66 109 29z m223 0 c30 -24 34 -63 9 -91 -23
-25 -89 -25 -103 1 -16 31 -12 69 10 91 26 26 51 25 84 -1z"/>
<path d="M1606 4643 c-6 -14 -5 -15 5 -6 7 7 10 15 7 18 -3 3 -9 -2 -12 -12z"/>
<path d="M2730 4641 c0 -6 4 -13 10 -16 6 -3 7 1 4 9 -7 18 -14 21 -14 7z"/>
<path d="M2780 4606 c0 -2 7 -7 16 -10 8 -3 12 -2 9 4 -6 10 -25 14 -25 6z"/>
<path d="M2820 4597 c0 -7 21 -30 46 -51 34 -28 43 -33 35 -17 -7 12 -23 27
-37 33 -22 10 -28 20 -25 41 0 4 -3 7 -9 7 -5 0 -10 -6 -10 -13z"/>
<path d="M3030 4559 c0 -5 5 -7 10 -4 6 3 10 8 10 11 0 2 -4 4 -10 4 -5 0 -10
-5 -10 -11z"/>
<path d="M2919 4485 c5 -11 17 -29 26 -40 l16 -20 -10 20 c-5 11 -17 29 -26
40 l-16 20 10 -20z"/>
<path d="M2968 4400 c2 -8 8 -28 13 -45 8 -28 8 -27 4 8 -2 22 0 35 6 32 5 -4
9 -1 9 5 0 7 -6 10 -14 7 -8 -3 -17 -3 -19 1 -2 4 -2 0 1 -8z"/>
<path d="M5607 4341 c-11 -14 -10 -14 6 -2 11 9 17 10 17 2 0 -6 5 -11 10 -11
6 0 10 6 10 13 0 19 -28 17 -43 -2z"/>
<path d="M1440 4324 c0 -5 -24 -36 -52 -69 -36 -40 -44 -53 -25 -41 16 11 27
14 27 7 0 -18 14 -13 29 10 12 20 11 21 -6 15 -16 -5 -16 -4 2 10 11 8 19 21
17 29 -1 7 3 17 9 21 9 5 10 -8 4 -51 -5 -40 -3 -55 4 -51 6 4 11 0 11 -10 0
-10 3 -15 6 -11 4 3 3 14 -1 24 -4 10 -7 36 -6 58 1 22 -3 47 -9 55 -5 8 -10
10 -10 4z"/>
<path d="M5565 4300 c-3 -5 -1 -10 4 -10 6 0 11 5 11 10 0 6 -2 10 -4 10 -3 0
-8 -4 -11 -10z"/>
<path d="M5510 4196 c-80 -179 32 -396 237 -460 40 -13 89 -17 193 -17 l140 0
76 -117 c43 -64 96 -146 120 -182 57 -88 100 -141 108 -133 3 3 6 102 6 220
l0 213 168 0 c204 0 248 10 320 75 115 104 126 262 24 369 -72 74 -34 71 -740
74 l-633 3 -19 -45z"/>
<path d="M1295 4170 c-3 -5 -1 -10 4 -10 6 0 11 5 11 10 0 6 -2 10 -4 10 -3 0
-8 -4 -11 -10z"/>
<path d="M446 4144 c-19 -19 -20 -36 -4 -52 36 -36 96 11 62 49 -21 23 -37 24
-58 3z"/>
<path d="M1185 4100 c-13 -6 -15 -9 -5 -9 8 0 22 4 30 9 18 12 2 12 -25 0z"/>
<path d="M7774 4046 c-10 -26 4 -46 31 -46 23 0 26 4 23 28 -3 31 -44 45 -54
18z"/>
<path d="M1610 3946 c0 -2 8 -10 18 -17 15 -13 16 -12 3 4 -13 16 -21 21 -21
13z"/>
<path d="M1131 3844 c0 -11 3 -14 6 -6 3 7 2 16 -1 19 -3 4 -6 -2 -5 -13z"/>
<path d="M1141 3746 c-1 -34 1 -37 14 -26 9 7 12 16 7 19 -5 3 -12 15 -15 26
-3 11 -5 3 -6 -19z"/>
<path d="M1220 3760 c-8 -5 -10 -10 -5 -10 6 0 17 5 25 10 8 5 11 10 5 10 -5
0 -17 -5 -25 -10z"/>
<path d="M532 3478 c-7 -7 -12 -22 -12 -34 0 -51 72 -61 78 -11 6 47 -36 75
-66 45z"/>
<path d="M883 3373 c-7 -3 -13 -11 -13 -19 0 -8 -6 -13 -12 -11 -8 1 -13 -11
-14 -33 -1 -42 29 -80 63 -80 31 0 73 42 73 73 0 48 -53 86 -97 70z"/>
<path d="M6971 3304 c-209 -56 -341 -231 -341 -451 0 -118 35 -204 122 -301
l39 -42 -3 -205 c-2 -134 0 -204 7 -202 6 2 63 71 128 153 l117 149 88 6 c110
7 197 45 275 118 100 94 142 206 135 360 -3 82 -8 106 -35 164 -95 201 -321
308 -532 251z m41 -391 c18 -16 24 -68 10 -89 -4 -6 -17 -16 -30 -23 -42 -22
-92 10 -92 60 0 57 70 90 112 52z m235 -5 c29 -27 30 -71 1 -98 -29 -27 -64
-25 -93 5 -66 66 24 157 92 93z"/>
<path d="M1059 3034 c-17 -21 0 -49 31 -49 27 0 46 25 37 49 -8 21 -51 21 -68
0z"/>
<path d="M1383 2896 c-68 -14 -103 -32 -39 -21 30 6 37 5 31 -5 -5 -8 -21 -10
-48 -7 -54 7 -109 -15 -101 -40 4 -13 3 -14 -3 -5 -10 14 -46 5 -37 -9 3 -5
-1 -6 -8 -4 -8 3 -23 -3 -33 -13 -11 -10 -28 -21 -38 -25 -10 -4 -16 -11 -13
-16 4 -5 -54 -10 -139 -10 -152 -2 -188 -8 -199 -36 -9 -25 -8 -32 10 -49 13
-14 67 -16 432 -16 376 0 420 -2 442 -17 33 -23 40 -33 40 -66 0 -36 20 -25
21 11 1 24 2 23 9 -8 10 -42 6 -50 -20 -43 -11 3 -20 1 -20 -5 0 -6 -19 -18
-42 -27 -37 -13 -89 -15 -380 -13 l-336 3 -6 -35 c-10 -63 -6 -174 9 -230 29
-110 83 -199 180 -295 49 -50 110 -101 135 -114 25 -13 64 -47 87 -75 235
-288 243 -298 249 -281 4 9 4 72 0 140 -8 140 -10 136 74 150 90 15 235 91
294 154 l30 31 383 0 383 0 0 -57 c0 -150 143 -266 287 -233 148 33 233 196
172 330 -25 56 -62 95 -114 123 -57 30 -163 30 -224 -1 l-45 -22 -650 0 c-505
0 -657 3 -676 13 -56 28 -58 101 -3 126 16 7 130 11 340 11 l316 0 -6 93 c-3
50 -11 106 -17 122 -9 27 -9 25 -5 -17 l5 -48 -93 2 c-50 0 -77 3 -59 5 24 3
32 9 32 24 0 16 7 19 50 19 38 0 50 4 50 15 0 9 -6 18 -14 21 -15 6 -10 44 6
44 6 0 8 -7 4 -15 -3 -8 0 -15 5 -15 7 0 9 9 5 23 -3 12 -6 26 -6 30 0 5 -4 5
-10 2 -5 -3 -8 0 -5 7 3 7 -9 37 -26 66 -28 50 -31 52 -44 35 -13 -17 -13 -17
-12 2 1 11 6 23 11 26 15 11 -120 134 -186 170 -80 43 -86 45 -71 28 10 -13 3
-14 -47 -9 -32 3 -62 9 -67 13 -4 5 14 6 40 4 27 -3 50 0 54 6 3 6 1 7 -5 3
-7 -4 -12 -3 -12 2 0 30 -227 49 -327 28z m167 -11 c0 -11 -11 -15 -40 -15
-62 0 -50 27 13 29 18 1 27 -4 27 -14z m73 -12 c-7 -2 -21 -2 -30 0 -10 3 -4
5 12 5 17 0 24 -2 18 -5z m181 -69 c3 -9 -1 -14 -12 -14 -11 0 -18 8 -18 19 0
21 21 18 30 -5z m-54 -14 c0 -24 -6 -25 -26 -6 -19 20 -18 26 6 26 13 0 20 -7
20 -20z m130 -31 c6 -10 7 -19 2 -19 -6 0 -12 9 -15 21 -4 13 -10 18 -18 13
-8 -4 -10 -3 -5 5 9 14 22 7 36 -20z m-267 -100 c-8 -8 -16 -8 -30 0 -16 9
-14 10 12 11 21 0 26 -3 18 -11z m37 -19 c0 -5 -2 -10 -4 -10 -3 0 -8 5 -11
10 -3 6 -1 10 4 10 6 0 11 -4 11 -10z m47 -20 c4 -12 3 -13 -5 -1 -5 7 -15 10
-21 7 -6 -4 -11 -2 -11 4 0 17 33 8 37 -10z m340 -42 c-3 -8 -6 -5 -6 6 -1 11
2 17 5 13 3 -3 4 -12 1 -19z m13 -38 c0 -5 -9 -10 -20 -10 -11 0 -20 5 -20 10
0 6 9 10 20 10 11 0 20 -4 20 -10z m-1123 -157 c-2 -16 -4 -5 -4 22 0 28 2 40
4 28 2 -13 2 -35 0 -50z m261 -20 c-10 -2 -28 -2 -40 0 -13 2 -5 4 17 4 22 1
32 -1 23 -4z m205 0 c-24 -2 -62 -2 -85 0 -24 2 -5 4 42 4 47 0 66 -2 43 -4z
m270 0 c-7 -2 -19 -2 -25 0 -7 3 -2 5 12 5 14 0 19 -2 13 -5z m190 0 c-7 -2
-21 -2 -30 0 -10 3 -4 5 12 5 17 0 24 -2 18 -5z"/>
<path d="M6228 2771 c26 -22 28 -37 6 -45 -8 -3 -12 -10 -9 -16 11 -17 23 -11
29 15 l7 26 29 -21 c17 -12 30 -19 30 -17 0 8 -97 77 -106 77 -5 -1 1 -9 14
-19z"/>
<path d="M6336 2675 c-3 -9 0 -15 9 -15 9 0 12 6 9 15 -4 8 -7 15 -9 15 -2 0
-5 -7 -9 -15z"/>
<path d="M6098 2663 c17 -2 47 -2 65 0 17 2 3 4 -33 4 -36 0 -50 -2 -32 -4z"/>
<path d="M6288 2663 c6 -2 18 -2 25 0 6 3 1 5 -13 5 -14 0 -19 -2 -12 -5z"/>
<path d="M6072 2523 l318 -3 -6 -48 c-7 -62 -12 -75 -24 -67 -6 3 -7 -1 -4
-10 5 -11 2 -14 -10 -9 -9 3 -16 1 -16 -5 0 -6 5 -11 10 -11 21 0 9 -23 -35
-68 -53 -53 -57 -61 -15 -31 61 46 110 140 110 214 l0 45 -322 -2 -323 -3 317
-2z"/>
<path d="M5770 2485 c-11 -20 -11 -33 -1 -67 16 -56 59 -121 73 -112 7 4 8 3
4 -4 -10 -16 68 -69 127 -87 28 -8 76 -14 106 -14 55 2 54 2 -19 9 -79 8 -113
18 -156 46 -19 13 -22 19 -12 26 9 6 8 8 -6 6 -15 -2 -20 4 -22 32 -2 19 -1
29 2 23 3 -7 14 -13 25 -13 12 0 19 -7 19 -20 0 -18 7 -20 80 -20 l80 0 0 40
0 40 40 0 40 0 0 41 0 40 -120 -3 c-66 -2 -120 0 -120 5 0 4 18 7 40 7 29 0
40 4 40 15 0 10 -11 16 -32 17 -18 1 -4 4 32 8 52 5 39 7 -71 8 -135 2 -136 2
-149 -23z m93 8 c10 -17 -15 -123 -29 -123 -20 0 -17 -27 4 -40 11 -8 12 -10
2 -7 -20 5 -40 45 -40 80 0 15 -7 30 -15 33 -18 7 -19 30 -2 49 13 15 73 20
80 8z"/>
<path d="M2316 2484 c-24 -23 -20 -61 8 -79 47 -31 93 22 62 70 -19 29 -47 32
-70 9z"/>
<path d="M2581 2404 c-65 -54 -22 -164 64 -164 70 0 117 79 85 141 -13 24 -61
49 -94 49 -13 0 -38 -12 -55 -26z"/>
<path d="M7317 2284 c-25 -25 8 -70 43 -59 32 10 24 59 -10 63 -14 2 -29 0
-33 -4z"/>
<path d="M6170 2260 c0 -5 9 -10 20 -10 11 0 20 5 20 10 0 6 -9 10 -20 10 -11
0 -20 -4 -20 -10z"/>
<path d="M5965 2240 c27 -12 43 -12 25 0 -8 5 -22 9 -30 9 -10 0 -8 -3 5 -9z"/>
<path d="M6213 2243 c-13 -2 -23 -9 -23 -14 0 -5 -10 -10 -22 -10 -16 -1 -18
-3 -6 -6 9 -2 34 5 55 16 38 20 37 22 -4 14z"/>
<path d="M7064 2130 c-38 -15 -64 -59 -64 -107 0 -38 5 -50 34 -79 28 -28 42
-34 76 -34 34 0 48 6 76 34 28 28 34 41 34 78 0 50 -18 82 -60 103 -32 17 -64
18 -96 5z"/>
<path d="M5090 2102 c-91 -47 -148 -155 -136 -256 24 -202 288 -298 434 -157
58 57 77 103 77 191 0 64 -4 82 -27 121 -54 91 -120 129 -227 129 -56 0 -79
-5 -121 -28z m187 -99 c141 -67 86 -273 -74 -273 -104 0 -169 104 -125 203 34
76 121 107 199 70z"/>
<path d="M3726 2027 c-22 -16 -18 -55 7 -71 39 -24 79 44 41 71 -10 7 -21 13
-24 13 -3 0 -14 -6 -24 -13z"/>
<path d="M4593 2015 c-41 -29 -38 -98 6 -132 25 -19 76 -15 105 8 34 27 37 88
4 119 -26 24 -84 27 -115 5z"/>
<path d="M5944 1996 c-10 -26 1 -51 23 -54 28 -4 50 32 32 54 -15 18 -48 18
-55 0z"/>
<path d="M3419 1931 c-43 -44 -41 -98 6 -140 49 -42 87 -41 131 3 38 38 43 70
19 116 -31 59 -107 69 -156 21z"/>
<path d="M2408 1723 c-40 -42 -41 -96 -3 -137 70 -76 199 20 151 113 -31 59
-104 70 -148 24z"/>
<path d="M4805 1724 c-9 -9 -14 -23 -11 -31 3 -8 6 -17 6 -19 0 -9 47 -3 58 8
16 16 15 23 -4 42 -20 20 -29 20 -49 0z"/>
<path d="M3326 1614 c-30 -29 -10 -74 32 -74 33 0 52 16 52 45 0 43 -53 61
-84 29z"/>
<path d="M5850 1574 c0 -5 -22 -35 -49 -65 l-50 -56 6 -89 c14 -221 -102 -426
-294 -521 -40 -20 -73 -38 -73 -41 0 -3 46 -70 77 -111 6 -8 195 70 348 144
141 67 327 171 423 237 40 28 54 48 32 48 -6 0 -45 17 -86 37 -137 68 -232
177 -301 346 -18 45 -33 77 -33 71z"/>
<path d="M2788 1443 c7 -3 16 -2 19 1 4 3 -2 6 -13 5 -11 0 -14 -3 -6 -6z"/>
<path d="M2190 1000 c14 -11 30 -20 35 -20 6 0 -1 9 -15 20 -14 11 -29 20 -35
20 -5 0 1 -9 15 -20z"/>
<path d="M2265 950 c3 -5 8 -10 11 -10 2 0 4 5 4 10 0 6 -5 10 -11 10 -5 0 -7
-4 -4 -10z"/>
<path d="M2290 935 c0 -2 10 -10 23 -16 20 -11 21 -11 8 4 -13 16 -31 23 -31
12z"/>
<path d="M3667 892 c49 -66 160 -153 194 -152 8 1 -2 9 -22 20 -19 10 -41 26
-48 34 -8 9 -19 16 -25 16 -17 0 -77 60 -71 71 4 5 -1 9 -10 9 -11 0 -15 5
-11 16 3 8 2 12 -4 9 -6 -3 -10 -1 -10 4 0 6 -5 11 -11 11 -6 0 2 -17 18 -38z"/>
<path d="M4596 903 c-6 -14 -5 -15 5 -6 7 7 10 15 7 18 -3 3 -9 -2 -12 -12z"/>
<path d="M4548 845 c-11 -13 -26 -22 -31 -18 -6 4 -7 1 -2 -6 5 -9 15 -5 36
15 16 15 29 29 29 31 0 9 -12 0 -32 -22z"/>
<path d="M4420 754 c0 -8 5 -12 10 -9 6 4 8 11 5 16 -9 14 -15 11 -15 -7z"/>
<path d="M4305 704 c-40 -14 -40 -14 -5 -9 19 3 39 10 44 15 12 12 12 12 -39
-6z"/>
<path d="M3741 543 c4 -23 -4 -32 -28 -36 -16 -2 12 -5 61 -6 92 -1 117 9 29
12 -40 2 -47 5 -45 20 2 9 -2 17 -8 17 -5 0 -9 -3 -9 -7z"/>
<path d="M3563 513 c9 -2 25 -2 35 0 9 3 1 5 -18 5 -19 0 -27 -2 -17 -5z"/>
<path d="M3640 516 c0 -2 7 -6 15 -10 8 -3 15 -1 15 4 0 6 -7 10 -15 10 -8 0
-15 -2 -15 -4z"/>
</g>
</svg>
